<mxfile host="app.diagrams.net" modified="2024-05-29T19:21:01.007Z" agent="Mozilla/5.0 (Windows NT 10.0; Win64; x64) AppleWebKit/537.36 (KHTML, like Gecko) Chrome/125.0.0.0 Safari/537.36" etag="rN7Q-QmcKXxl91apRo8t" version="24.4.10" type="device">
  <diagram name="Page-1" id="ym7XiY9am1cs1DMAbF1p">
    <mxGraphModel dx="1434" dy="738" grid="1" gridSize="10" guides="1" tooltips="1" connect="1" arrows="1" fold="1" page="1" pageScale="1" pageWidth="827" pageHeight="1169" math="0" shadow="0">
      <root>
        <mxCell id="0" />
        <mxCell id="1" parent="0" />
        <mxCell id="Og7KcSRoBm8xJNwZTlcN-1" value="" style="rounded=0;whiteSpace=wrap;html=1;fillColor=#d5e8d4;strokeColor=#82b366;" parent="1" vertex="1">
          <mxGeometry x="240" y="120" width="150" height="500" as="geometry" />
        </mxCell>
        <mxCell id="Og7KcSRoBm8xJNwZTlcN-2" value="" style="rounded=0;whiteSpace=wrap;html=1;fillColor=#dae8fc;strokeColor=#6c8ebf;" parent="1" vertex="1">
          <mxGeometry x="530" y="120" width="160" height="500" as="geometry" />
        </mxCell>
        <mxCell id="Og7KcSRoBm8xJNwZTlcN-3" value="TPSP Status" style="rounded=1;whiteSpace=wrap;html=1;fillColor=#dae8fc;strokeColor=#6c8ebf;" parent="1" vertex="1">
          <mxGeometry x="550" y="140" width="120" height="30" as="geometry" />
        </mxCell>
        <mxCell id="Og7KcSRoBm8xJNwZTlcN-4" value="TPSP Start Date" style="rounded=1;whiteSpace=wrap;html=1;fillColor=#dae8fc;strokeColor=#6c8ebf;" parent="1" vertex="1">
          <mxGeometry x="550" y="180" width="120" height="30" as="geometry" />
        </mxCell>
        <mxCell id="Og7KcSRoBm8xJNwZTlcN-5" value="TPSP Completion&amp;nbsp;&lt;span style=&quot;background-color: initial;&quot;&gt;Date&lt;/span&gt;" style="rounded=1;whiteSpace=wrap;html=1;fillColor=#dae8fc;strokeColor=#6c8ebf;" parent="1" vertex="1">
          <mxGeometry x="550" y="220" width="120" height="30" as="geometry" />
        </mxCell>
        <mxCell id="Og7KcSRoBm8xJNwZTlcN-6" value="TPSRA&lt;span style=&quot;background-color: initial;&quot;&gt;&amp;nbsp;Status&lt;/span&gt;" style="rounded=1;whiteSpace=wrap;html=1;fillColor=#dae8fc;strokeColor=#6c8ebf;" parent="1" vertex="1">
          <mxGeometry x="550" y="270" width="120" height="30" as="geometry" />
        </mxCell>
        <mxCell id="Og7KcSRoBm8xJNwZTlcN-7" value="TPSRA Start Date" style="rounded=1;whiteSpace=wrap;html=1;fillColor=#dae8fc;strokeColor=#6c8ebf;" parent="1" vertex="1">
          <mxGeometry x="550" y="310" width="120" height="30" as="geometry" />
        </mxCell>
        <mxCell id="Og7KcSRoBm8xJNwZTlcN-8" value="TPSRA Completion&amp;nbsp;&lt;span style=&quot;background-color: initial;&quot;&gt;Date&lt;/span&gt;" style="rounded=1;whiteSpace=wrap;html=1;fillColor=#dae8fc;strokeColor=#6c8ebf;" parent="1" vertex="1">
          <mxGeometry x="550" y="350" width="120" height="30" as="geometry" />
        </mxCell>
        <mxCell id="Og7KcSRoBm8xJNwZTlcN-9" value="TPRO Name" style="rounded=1;whiteSpace=wrap;html=1;fillColor=#dae8fc;strokeColor=#6c8ebf;" parent="1" vertex="1">
          <mxGeometry x="550" y="400" width="120" height="30" as="geometry" />
        </mxCell>
        <mxCell id="Og7KcSRoBm8xJNwZTlcN-10" value="UpGaurd Score" style="rounded=1;whiteSpace=wrap;html=1;fillColor=#d5e8d4;strokeColor=#82b366;" parent="1" vertex="1">
          <mxGeometry x="255" y="450" width="120" height="60" as="geometry" />
        </mxCell>
        <mxCell id="Og7KcSRoBm8xJNwZTlcN-11" value="TPSP Status" style="rounded=1;whiteSpace=wrap;html=1;fillColor=#dae8fc;strokeColor=#6c8ebf;" parent="1" vertex="1">
          <mxGeometry x="255" y="130" width="120" height="30" as="geometry" />
        </mxCell>
        <mxCell id="Og7KcSRoBm8xJNwZTlcN-12" value="TPSP Start Date" style="rounded=1;whiteSpace=wrap;html=1;fillColor=#dae8fc;strokeColor=#6c8ebf;" parent="1" vertex="1">
          <mxGeometry x="255" y="170" width="120" height="30" as="geometry" />
        </mxCell>
        <mxCell id="Og7KcSRoBm8xJNwZTlcN-13" value="TPSP Completion&amp;nbsp;&lt;span style=&quot;background-color: initial;&quot;&gt;Date&lt;/span&gt;" style="rounded=1;whiteSpace=wrap;html=1;fillColor=#dae8fc;strokeColor=#6c8ebf;" parent="1" vertex="1">
          <mxGeometry x="255" y="210" width="120" height="30" as="geometry" />
        </mxCell>
        <mxCell id="Og7KcSRoBm8xJNwZTlcN-14" value="TPSRA&lt;span style=&quot;background-color: initial;&quot;&gt;&amp;nbsp;Status&lt;/span&gt;" style="rounded=1;whiteSpace=wrap;html=1;fillColor=#dae8fc;strokeColor=#6c8ebf;" parent="1" vertex="1">
          <mxGeometry x="255" y="260" width="120" height="30" as="geometry" />
        </mxCell>
        <mxCell id="Og7KcSRoBm8xJNwZTlcN-15" value="TPSRA Start Date" style="rounded=1;whiteSpace=wrap;html=1;fillColor=#dae8fc;strokeColor=#6c8ebf;" parent="1" vertex="1">
          <mxGeometry x="255" y="300" width="120" height="30" as="geometry" />
        </mxCell>
        <mxCell id="Og7KcSRoBm8xJNwZTlcN-16" value="TPSRA Completion&amp;nbsp;&lt;span style=&quot;background-color: initial;&quot;&gt;Date&lt;/span&gt;" style="rounded=1;whiteSpace=wrap;html=1;fillColor=#dae8fc;strokeColor=#6c8ebf;" parent="1" vertex="1">
          <mxGeometry x="255" y="340" width="120" height="30" as="geometry" />
        </mxCell>
        <mxCell id="Og7KcSRoBm8xJNwZTlcN-17" value="TPRO Name" style="rounded=1;whiteSpace=wrap;html=1;fillColor=#dae8fc;strokeColor=#6c8ebf;" parent="1" vertex="1">
          <mxGeometry x="255" y="390" width="120" height="30" as="geometry" />
        </mxCell>
        <mxCell id="Og7KcSRoBm8xJNwZTlcN-18" value="UpGaurd Score" style="rounded=1;whiteSpace=wrap;html=1;fillColor=#d5e8d4;strokeColor=#82b366;" parent="1" vertex="1">
          <mxGeometry x="550" y="450" width="120" height="60" as="geometry" />
        </mxCell>
        <mxCell id="Og7KcSRoBm8xJNwZTlcN-23" value="Upgaurd" style="text;html=1;align=center;verticalAlign=middle;whiteSpace=wrap;rounded=0;" parent="1" vertex="1">
          <mxGeometry x="285" y="80" width="60" height="30" as="geometry" />
        </mxCell>
        <mxCell id="Og7KcSRoBm8xJNwZTlcN-24" value="Auditboard" style="text;html=1;align=center;verticalAlign=middle;whiteSpace=wrap;rounded=0;" parent="1" vertex="1">
          <mxGeometry x="580" y="80" width="60" height="30" as="geometry" />
        </mxCell>
        <mxCell id="Og7KcSRoBm8xJNwZTlcN-25" value="" style="shape=flexArrow;endArrow=classic;startArrow=classic;html=1;rounded=0;exitX=1;exitY=0.5;exitDx=0;exitDy=0;" parent="1" source="Og7KcSRoBm8xJNwZTlcN-1" target="Og7KcSRoBm8xJNwZTlcN-2" edge="1">
          <mxGeometry width="100" height="100" relative="1" as="geometry">
            <mxPoint x="420" y="340" as="sourcePoint" />
            <mxPoint x="520" y="240" as="targetPoint" />
          </mxGeometry>
        </mxCell>
        <mxCell id="qGZog8rl2Ilz2-27o6IR-2" value="Vendor URL" style="rounded=1;whiteSpace=wrap;html=1;fillColor=#d5e8d4;strokeColor=#82b366;" vertex="1" parent="1">
          <mxGeometry x="255" y="530" width="120" height="60" as="geometry" />
        </mxCell>
        <mxCell id="qGZog8rl2Ilz2-27o6IR-3" value="Vendor URL" style="rounded=1;whiteSpace=wrap;html=1;fillColor=#d5e8d4;strokeColor=#82b366;" vertex="1" parent="1">
          <mxGeometry x="550" y="524.5" width="120" height="60" as="geometry" />
        </mxCell>
      </root>
    </mxGraphModel>
  </diagram>
</mxfile>
